<svg width="75" height="74" viewBox="0 0 75 74" fill="none" xmlns="http://www.w3.org/2000/svg">
<path d="M22.4596 46.6719H21.5429V47.5885H22.4596V46.6719ZM22.4596 43.0052V42.0885H21.5429V43.0052H22.4596ZM26.1263 46.6719V47.5885H27.0429V46.6719H26.1263ZM22.4596 33.8385H21.5429V34.7552H22.4596V33.8385ZM22.4596 30.1719V29.2552H21.5429V30.1719H22.4596ZM26.1263 30.1719H27.0429V29.2552H26.1263V30.1719ZM53.6263 46.6719V47.5885H54.5429V46.6719H53.6263ZM49.9596 46.6719H49.0429V47.5885H49.9596V46.6719ZM53.6263 43.0052H54.5429V42.0885H53.6263V43.0052ZM53.6263 33.8385V34.7552H54.5429V33.8385H53.6263ZM49.9596 30.1719V29.2552H49.0429V30.1719H49.9596ZM53.6263 30.1719H54.5429V29.2552H53.6263V30.1719ZM54.5429 26.5052H21.5429V28.3385H54.5429V26.5052ZM21.5429 26.5052C19.9869 26.5052 18.7929 27.7937 18.7929 29.2552H20.6263C20.6263 28.7688 21.0364 28.3385 21.5429 28.3385V26.5052ZM18.7929 29.2552V47.5885H20.6263V29.2552H18.7929ZM18.7929 47.5885C18.7929 49.1261 20.0054 50.3385 21.5429 50.3385V48.5052C21.0179 48.5052 20.6263 48.1135 20.6263 47.5885H18.7929ZM21.5429 50.3385H54.5429V48.5052H21.5429V50.3385ZM54.5429 50.3385C56.0045 50.3385 57.2929 49.1445 57.2929 47.5885H55.4596C55.4596 48.095 55.0293 48.5052 54.5429 48.5052V50.3385ZM57.2929 47.5885V29.2552H55.4596V47.5885H57.2929ZM57.2929 29.2552C57.2929 27.775 56.0231 26.5052 54.5429 26.5052V28.3385C55.0106 28.3385 55.4596 28.7875 55.4596 29.2552H57.2929ZM23.3763 46.6719V43.0052H21.5429V46.6719H23.3763ZM22.4596 43.9219C23.9585 43.9219 25.2096 45.1729 25.2096 46.6719H27.0429C27.0429 44.1604 24.9711 42.0885 22.4596 42.0885V43.9219ZM26.1263 45.7552H22.4596V47.5885H26.1263V45.7552ZM23.3763 33.8385V30.1719H21.5429V33.8385H23.3763ZM22.4596 31.0885H26.1263V29.2552H22.4596V31.0885ZM25.2096 30.1719C25.2096 31.7188 23.9679 32.9219 22.4596 32.9219V34.7552C24.9617 34.7552 27.0429 32.75 27.0429 30.1719H25.2096ZM38.0429 43.0052C36.1204 43.0052 34.3763 41.173 34.3763 38.4219H32.5429C32.5429 41.8583 34.8091 44.8385 38.0429 44.8385V43.0052ZM34.3763 38.4219C34.3763 35.7214 36.126 33.8385 38.0429 33.8385V32.0052C34.8036 32.0052 32.5429 35.0494 32.5429 38.4219H34.3763ZM38.0429 33.8385C39.9092 33.8385 41.7096 35.7294 41.7096 38.4219H43.5429C43.5429 35.0414 41.2183 32.0052 38.0429 32.0052V33.8385ZM41.7096 38.4219C41.7096 41.165 39.9148 43.0052 38.0429 43.0052V44.8385C41.2127 44.8385 43.5429 41.8663 43.5429 38.4219H41.7096ZM53.6263 45.7552H49.9596V47.5885H53.6263V45.7552ZM50.8763 46.6719C50.8763 45.1636 52.0793 43.9219 53.6263 43.9219V42.0885C51.0482 42.0885 49.0429 44.1698 49.0429 46.6719H50.8763ZM52.7096 43.0052V46.6719H54.5429V43.0052H52.7096ZM53.6263 32.9219C52.07 32.9219 50.8763 31.7281 50.8763 30.1719H49.0429C49.0429 32.7406 51.0575 34.7552 53.6263 34.7552V32.9219ZM49.9596 31.0885H53.6263V29.2552H49.9596V31.0885ZM52.7096 30.1719V33.8385H54.5429V30.1719H52.7096Z" fill="#EB5E28"/>
<rect x="1.29159" y="0.791829" width="72.4167" height="72.4167" rx="36.2083" stroke="#EB5E28" stroke-width="0.916667"/>
</svg>
