<svg width="74" height="74" viewBox="0 0 74 74" fill="none" xmlns="http://www.w3.org/2000/svg">
<path d="M45.1053 39.6823L44.4858 39.0066L43.5337 39.8793L44.6718 40.49L45.1053 39.6823ZM49.4594 45.9271L48.5528 46.0621L48.6692 46.8438H49.4594V45.9271ZM40.6365 40.4271V39.5104H40.4294L40.2424 39.5995L40.6365 40.4271ZM32.7875 40.4271L33.1817 39.5995L32.9947 39.5104H32.7875V40.4271ZM28.3188 39.6823L28.7522 40.49L29.8903 39.8793L28.9382 39.0066L28.3188 39.6823ZM23.9646 45.9271V46.8438H24.7549L24.8713 46.0621L23.9646 45.9271ZM23.9073 37.6771C26.4094 37.6771 28.4907 35.6718 28.4907 33.0938H26.6573C26.6573 34.6407 25.4157 35.8438 23.9073 35.8438V37.6771ZM28.4907 33.0938C28.4907 30.5823 26.4188 28.5104 23.9073 28.5104V30.3437C25.4063 30.3437 26.6573 31.5948 26.6573 33.0938H28.4907ZM23.9073 28.5104C21.3293 28.5104 19.324 30.5916 19.324 33.0938H21.1573C21.1573 31.5854 22.3604 30.3437 23.9073 30.3437V28.5104ZM19.324 33.0938C19.324 35.6625 21.3386 37.6771 23.9073 37.6771V35.8438C22.3511 35.8438 21.1573 34.65 21.1573 33.0938H19.324ZM49.574 37.6771C52.0761 37.6771 54.1573 35.6718 54.1573 33.0938H52.324C52.324 34.6407 51.0823 35.8438 49.574 35.8438V37.6771ZM54.1573 33.0938C54.1573 30.5823 52.0855 28.5104 49.574 28.5104V30.3437C51.073 30.3437 52.324 31.5948 52.324 33.0938H54.1573ZM49.574 28.5104C46.9959 28.5104 44.9907 30.5916 44.9907 33.0938H46.824C46.824 31.5854 48.0271 30.3437 49.574 30.3437V28.5104ZM44.9907 33.0938C44.9907 35.6625 47.0052 37.6771 49.574 37.6771V35.8438C48.0178 35.8438 46.824 34.65 46.824 33.0938H44.9907ZM51.4073 37.6771H47.7407V39.5104H51.4073V37.6771ZM47.7407 37.6771C46.4306 37.6771 45.302 38.2584 44.4858 39.0066L45.7247 40.358C46.2835 39.8458 46.9882 39.5104 47.7407 39.5104V37.6771ZM44.6718 40.49C46.7612 41.6111 48.1936 43.6508 48.5528 46.0621L50.3661 45.792C49.9231 42.818 48.1472 40.2743 45.5387 38.8746L44.6718 40.49ZM49.4594 46.8438H53.2407V45.0104H49.4594V46.8438ZM53.2407 46.8438C54.7022 46.8438 55.9907 45.6497 55.9907 44.0938H54.1573C54.1573 44.6003 53.7271 45.0104 53.2407 45.0104V46.8438ZM55.9907 44.0938V42.2604H54.1573V44.0938H55.9907ZM55.9907 42.2604C55.9907 39.7489 53.9188 37.6771 51.4073 37.6771V39.5104C52.9063 39.5104 54.1573 40.7615 54.1573 42.2604H55.9907ZM36.7407 39.5104C40.7364 39.5104 44.074 36.2407 44.074 32.1771H42.2407C42.2407 35.2176 39.7345 37.6771 36.7407 37.6771V39.5104ZM44.074 32.1771C44.074 28.176 40.7417 24.8437 36.7407 24.8437V26.6771C39.7292 26.6771 42.2407 29.1886 42.2407 32.1771H44.074ZM36.7407 24.8437C32.677 24.8437 29.4073 28.1814 29.4073 32.1771H31.2407C31.2407 29.1832 33.7002 26.6771 36.7407 26.6771V24.8437ZM29.4073 32.1771C29.4073 36.2354 32.6823 39.5104 36.7407 39.5104V37.6771C33.6949 37.6771 31.2407 35.2229 31.2407 32.1771H29.4073ZM41.0948 39.5104H40.6365V41.3438H41.0948V39.5104ZM40.2424 39.5995C39.1449 40.1221 37.9612 40.4271 36.7407 40.4271V42.2604C38.2702 42.2604 39.7219 41.8779 41.0306 41.2547L40.2424 39.5995ZM36.7407 40.4271C35.46 40.4271 34.2762 40.1207 33.1817 39.5995L32.3934 41.2547C33.7051 41.8793 35.1568 42.2604 36.7407 42.2604V40.4271ZM32.7875 39.5104H32.3292V41.3438H32.7875V39.5104ZM32.3292 39.5104C28.146 39.5104 24.824 42.9104 24.824 47.0729H26.6573C26.6573 43.9021 29.1791 41.3438 32.3292 41.3438V39.5104ZM24.824 47.0729V48.6771H26.6573V47.0729H24.824ZM24.824 48.6771C24.824 50.7302 26.4375 52.3438 28.4907 52.3438V50.5104C27.4501 50.5104 26.6573 49.7177 26.6573 48.6771H24.824ZM28.4907 52.3438H44.9907V50.5104H28.4907V52.3438ZM44.9907 52.3438C46.974 52.3438 48.6573 50.7426 48.6573 48.6771H46.824C46.824 49.7053 45.9865 50.5104 44.9907 50.5104V52.3438ZM48.6573 48.6771V47.0729H46.824V48.6771H48.6573ZM48.6573 47.0729C48.6573 42.9 45.2678 39.5104 41.0948 39.5104V41.3438C44.2552 41.3438 46.824 43.9125 46.824 47.0729H48.6573ZM28.9382 39.0066C28.1284 38.2643 27.0004 37.6771 25.7407 37.6771V39.5104C26.4289 39.5104 27.1342 39.8399 27.6994 40.358L28.9382 39.0066ZM25.7407 37.6771H22.074V39.5104H25.7407V37.6771ZM22.074 37.6771C19.4959 37.6771 17.4907 39.7583 17.4907 42.2604H19.324C19.324 40.7521 20.5271 39.5104 22.074 39.5104V37.6771ZM17.4907 42.2604V44.0938H19.324V42.2604H17.4907ZM17.4907 44.0938C17.4907 45.6313 18.7032 46.8438 20.2407 46.8438V45.0104C19.7157 45.0104 19.324 44.6187 19.324 44.0938H17.4907ZM20.2407 46.8438H23.9646V45.0104H20.2407V46.8438ZM24.8713 46.0621C25.2304 43.6508 26.6628 41.6111 28.7522 40.49L27.8854 38.8746C25.2768 40.2743 23.5009 42.818 23.058 45.792L24.8713 46.0621Z" fill="#EB5E28"/>
<rect x="0.791585" y="0.791829" width="72.4167" height="72.4167" rx="36.2083" stroke="#EB5E28" stroke-width="0.916667"/>
</svg>
